<?xml version="1.0" encoding="UTF-8"?>
<svg version="1.1" xmlns="http://www.w3.org/2000/svg" width="64" height="64">
<path d="M0 0 C2.6875 -0.375 2.6875 -0.375 6 0 C8.875 2.625 8.875 2.625 11 6 C11 7.98 11 9.96 11 12 C28.49 12 45.98 12 64 12 C64 13.98 64 15.96 64 18 C63.01 18 62.02 18 61 18 C60.814375 19.93359375 60.814375 19.93359375 60.625 21.90625 C60.07411639 26.85644353 59.10850457 31.64828434 58 36.5 C57.82210937 37.30953125 57.64421875 38.1190625 57.4609375 38.953125 C56.1308171 44.8691829 56.1308171 44.8691829 55 46 C52.04294679 46.08868299 49.10934944 46.11520296 46.15234375 46.09765625 C44.82270348 46.09553383 44.82270348 46.09553383 43.46620178 46.09336853 C40.62326746 46.08775215 37.78041069 46.07519691 34.9375 46.0625 C33.01497509 46.05748711 31.09244896 46.05292384 29.16992188 46.04882812 C24.44658451 46.03777741 19.72330542 46.02050183 15 46 C16.32 47.32 17.64 48.64 19 50 C19.99 49.34 20.98 48.68 22 48 C25.1875 47.875 25.1875 47.875 28 48 C28.66 49.32 29.32 50.64 30 52 C33.3 52 36.6 52 40 52 C40.66 50.68 41.32 49.36 42 48 C44.875 47.875 44.875 47.875 48 48 C50 50 50 50 50.25 53 C50 56 50 56 48 58 C44.875 58.125 44.875 58.125 42 58 C41.34 56.68 40.68 55.36 40 54 C36.7 54 33.4 54 30 54 C29.34 55.32 28.68 56.64 28 58 C26.02 58 24.04 58 22 58 C21.7525 57.360625 21.505 56.72125 21.25 56.0625 C20.22075249 53.82698013 20.22075249 53.82698013 18.125 53.5 C17.42375 53.335 16.7225 53.17 16 53 C11.71105752 49.84636582 10.97931431 45.98811043 10 41 C9.61143906 38.26648162 9.36508954 35.53321624 9.1484375 32.78125 C9.08467926 32.03790405 9.02092102 31.29455811 8.95523071 30.52868652 C8.75571039 28.18625808 8.56519809 25.84320185 8.375 23.5 C8.24018191 21.898387 8.10477056 20.29682382 7.96875 18.6953125 C7.63898113 14.79741659 7.31728095 10.89893144 7 7 C4.69 6.67 2.38 6.34 0 6 C0 4.02 0 2.04 0 0 Z M11 14 C11.33 14.66 11.66 15.32 12 16 C28.17 16 44.34 16 61 16 C61 15.34 61 14.68 61 14 C44.5 14 28 14 11 14 Z M12 18 C11.8721725 28.51130999 11.8721725 28.51130999 13 41 C28.345 40.505 28.345 40.505 44 40 C44 40.66 44 41.32 44 42 C34.1 42 24.2 42 14 42 C14 42.66 14 43.32 14 44 C26.54 44 39.08 44 52 44 C53.87584871 38.37245386 55.49520703 33.34043613 56.6875 27.625 C57.06455078 25.84996094 57.06455078 25.84996094 57.44921875 24.0390625 C58.08916446 21.0227761 58.08916446 21.0227761 58 18 C42.82 18 27.64 18 12 18 Z M24 50 C23.34 51.32 22.68 52.64 22 54 C23.98 54.99 23.98 54.99 26 56 C26.66 54.68 27.32 53.36 28 52 C26.68 51.34 25.36 50.68 24 50 Z M44 50 C43.34 51.32 42.68 52.64 42 54 C43.98 54.99 43.98 54.99 46 56 C46.66 54.68 47.32 53.36 48 52 C46.68 51.34 45.36 50.68 44 50 Z " fill="#FFFFFF" transform="translate(0,2)"/>
<path d="M0 0 C1.98 0 3.96 0 6 0 C6 0.66 6 1.32 6 2 C4.02 2 2.04 2 0 2 C0 1.34 0 0.68 0 0 Z " fill="#FFFFFF" transform="translate(46,42)"/>
<path d="M0 0 C0.66 0 1.32 0 2 0 C2 1.32 2 2.64 2 4 C1.34 4 0.68 4 0 4 C0 2.68 0 1.36 0 0 Z " fill="#FFFFFF" transform="translate(53,22)"/>
<path d="M0 0 C0.66 0 1.32 0 2 0 C2 1.32 2 2.64 2 4 C1.34 4 0.68 4 0 4 C0 2.68 0 1.36 0 0 Z " fill="#FFFFFF" transform="translate(48,22)"/>
<path d="M0 0 C0.66 0 1.32 0 2 0 C2 1.32 2 2.64 2 4 C1.34 4 0.68 4 0 4 C0 2.68 0 1.36 0 0 Z " fill="#FFFFFF" transform="translate(43,22)"/>
<path d="M0 0 C0.66 0 1.32 0 2 0 C2 1.32 2 2.64 2 4 C1.34 4 0.68 4 0 4 C0 2.68 0 1.36 0 0 Z " fill="#FFFFFF" transform="translate(38,22)"/>
<path d="M0 0 C0.66 0 1.32 0 2 0 C2 1.32 2 2.64 2 4 C1.34 4 0.68 4 0 4 C0 2.68 0 1.36 0 0 Z " fill="#FFFFFF" transform="translate(33,22)"/>
<path d="M0 0 C0.66 0 1.32 0 2 0 C2 1.32 2 2.64 2 4 C1.34 4 0.68 4 0 4 C0 2.68 0 1.36 0 0 Z " fill="#FFFFFF" transform="translate(28,22)"/>
<path d="M0 0 C0.66 0 1.32 0 2 0 C2 1.32 2 2.64 2 4 C1.34 4 0.68 4 0 4 C0 2.68 0 1.36 0 0 Z " fill="#FFFFFF" transform="translate(23,22)"/>
<path d="M0 0 C0.66 0 1.32 0 2 0 C2 1.32 2 2.64 2 4 C1.34 4 0.68 4 0 4 C0 2.68 0 1.36 0 0 Z " fill="#FFFFFF" transform="translate(18,22)"/>
<path d="M0 0 C0.66 0 1.32 0 2 0 C2 1.32 2 2.64 2 4 C1.34 4 0.68 4 0 4 C0 2.68 0 1.36 0 0 Z " fill="#FFFFFF" transform="translate(13,22)"/>
</svg>
