<?xml version="1.0" standalone="no"?>
<!DOCTYPE svg PUBLIC "-//W3C//DTD SVG 20010904//EN"
 "http://www.w3.org/TR/2001/REC-SVG-20010904/DTD/svg10.dtd">
<svg version="1.0" xmlns="http://www.w3.org/2000/svg"
 width="256.000000pt" height="256.000000pt" viewBox="0 0 256.000000 256.000000"
 preserveAspectRatio="xMidYMid meet">

<g transform="translate(0.000000,256.000000) scale(0.100000,-0.100000)"
fill="#000000" stroke="none">
<path d="M900 2550 c-426 -54 -758 -343 -862 -750 -133 -521 163 -1043 682
-1204 286 -89 604 -37 858 140 35 24 66 44 70 44 4 0 176 -169 382 -376 206
-206 387 -382 402 -390 68 -36 150 46 114 113 -8 15 -184 197 -390 403 -207
206 -376 378 -376 383 0 4 18 32 39 61 135 182 207 450 182 679 -37 348 -243
644 -554 797 -168 83 -380 121 -547 100z m255 -185 c305 -54 559 -286 647
-592 32 -113 32 -324 0 -437 -80 -280 -298 -498 -578 -578 -113 -32 -324 -32
-437 0 -306 88 -538 342 -592 647 -46 268 29 522 213 717 191 202 466 292 747
243z"/>
</g>
</svg>
